<mxfile host="65bd71144e">
    <diagram id="2AlfECEdo2wQPiEfGxqV" name="Page-1">
        <mxGraphModel dx="948" dy="700" grid="1" gridSize="10" guides="1" tooltips="1" connect="1" arrows="1" fold="1" page="1" pageScale="1" pageWidth="827" pageHeight="1169" math="0" shadow="0">
            <root>
                <mxCell id="0"/>
                <mxCell id="1" parent="0"/>
                <mxCell id="13" value="&lt;font style=&quot;font-size: 24px&quot;&gt;ERD&lt;/font&gt;" style="rounded=0;whiteSpace=wrap;html=1;" vertex="1" parent="1">
                    <mxGeometry x="354" y="40" width="120" height="50" as="geometry"/>
                </mxCell>
                <mxCell id="14" value="&lt;font style=&quot;font-size: 12px&quot;&gt;User&lt;/font&gt;" style="whiteSpace=wrap;html=1;aspect=fixed;fontSize=24;" vertex="1" parent="1">
                    <mxGeometry x="155" y="300" width="80" height="80" as="geometry"/>
                </mxCell>
                <mxCell id="15" value="&lt;font style=&quot;font-size: 12px&quot;&gt;Menu&lt;br&gt;&lt;/font&gt;" style="whiteSpace=wrap;html=1;aspect=fixed;fontSize=24;" vertex="1" parent="1">
                    <mxGeometry x="590" y="300" width="80" height="80" as="geometry"/>
                </mxCell>
                <mxCell id="31" style="edgeStyle=none;html=1;exitX=0.5;exitY=1;exitDx=0;exitDy=0;entryX=0.5;entryY=0;entryDx=0;entryDy=0;fontSize=12;" edge="1" parent="1" source="17" target="14">
                    <mxGeometry relative="1" as="geometry"/>
                </mxCell>
                <mxCell id="17" value="nickName" style="ellipse;whiteSpace=wrap;html=1;fontSize=12;" vertex="1" parent="1">
                    <mxGeometry x="157.5" y="190" width="75" height="50" as="geometry"/>
                </mxCell>
                <mxCell id="22" value="" style="edgeStyle=none;html=1;fontSize=12;" edge="1" parent="1" target="14">
                    <mxGeometry relative="1" as="geometry">
                        <mxPoint x="195" y="380" as="sourcePoint"/>
                    </mxGeometry>
                </mxCell>
                <mxCell id="32" style="edgeStyle=none;html=1;exitX=1;exitY=0.5;exitDx=0;exitDy=0;fontSize=12;" edge="1" parent="1" source="19" target="14">
                    <mxGeometry relative="1" as="geometry"/>
                </mxCell>
                <mxCell id="19" value="&lt;u&gt;email&lt;/u&gt;" style="ellipse;whiteSpace=wrap;html=1;fontSize=12;" vertex="1" parent="1">
                    <mxGeometry x="20" y="315" width="75" height="50" as="geometry"/>
                </mxCell>
                <mxCell id="26" style="edgeStyle=none;html=1;exitX=0.5;exitY=1;exitDx=0;exitDy=0;entryX=0.5;entryY=0;entryDx=0;entryDy=0;fontSize=12;" edge="1" parent="1" source="25" target="15">
                    <mxGeometry relative="1" as="geometry"/>
                </mxCell>
                <mxCell id="25" value="menuname" style="ellipse;whiteSpace=wrap;html=1;fontSize=12;" vertex="1" parent="1">
                    <mxGeometry x="592.5" y="190" width="75" height="50" as="geometry"/>
                </mxCell>
                <mxCell id="28" style="edgeStyle=none;html=1;entryX=1;entryY=0.5;entryDx=0;entryDy=0;fontSize=12;" edge="1" parent="1" source="27" target="15">
                    <mxGeometry relative="1" as="geometry"/>
                </mxCell>
                <mxCell id="27" value="&lt;u&gt;menu_id&lt;/u&gt;" style="ellipse;whiteSpace=wrap;html=1;fontSize=12;" vertex="1" parent="1">
                    <mxGeometry x="732" y="315" width="75" height="50" as="geometry"/>
                </mxCell>
            </root>
        </mxGraphModel>
    </diagram>
</mxfile>